<?xml version="1.0" encoding="iso-8859-1"?>
<!-- Generator: Adobe Illustrator 19.0.0, SVG Export Plug-In . SVG Version: 6.00 Build 0)  -->
<svg version="1.1" id="Capa_1" xmlns="http://www.w3.org/2000/svg" xmlns:xlink="http://www.w3.org/1999/xlink" x="0px" y="0px"
	 viewBox="0 0 512.004 512.004" style="enable-background:new 0 0 512.004 512.004;" xml:space="preserve">
		<path d="M509.585,249.996l-174.481-179.2c-3.208-3.302-9.02-3.302-12.228,0l-47.386,48.666c-3.234,3.319-3.226,8.619,0.017,11.93
			l80.307,81.894H8.533c-4.71,0-8.533,3.823-8.533,8.533v68.267c0,4.71,3.823,8.533,8.533,8.533h347.281l-80.307,81.894
			c-3.243,3.311-3.251,8.61-0.017,11.93l47.386,48.666c1.604,1.647,3.806,2.577,6.11,2.577c2.304,0,4.506-0.93,6.118-2.577
			l174.481-179.2C512.811,258.589,512.811,253.307,509.585,249.996z M328.977,422.915l-35.447-36.412l88.695-90.445
			c2.406-2.449,3.106-6.11,1.775-9.276c-1.331-3.166-4.429-5.231-7.868-5.231H17.067v-51.2h359.066c3.439,0,6.536-2.065,7.868-5.231
			c1.331-3.166,0.632-6.818-1.775-9.276l-88.695-90.445l35.447-36.412l162.577,166.963L328.977,422.915z"/>
</svg>
